<svg class="canvas" viewBox="0 0 1920 1080" preserveAspectRatio="xMaxYMid slice" xmlns="http://www.w3.org/2000/svg" version="1.1" xmlns:xlink="http://www.w3.org/1999/xlink" xmlns:svgjs="http://svgjs.dev/svgjs"><rect width="1920" height="1080" fill="hsl(0, 0%, 0%)"></rect><defs><linearGradient x1="0.5" y1="0" x2="0" y2="1" id="SvgjsLinearGradient1130"><stop stop-color="rgb(34, 34, 34)" offset="0"></stop><stop stop-color="rgb(65, 65, 65)" offset="0.1"></stop></linearGradient><linearGradient x1="0.5" y1="0" x2="0" y2="1" id="SvgjsLinearGradient1131"><stop stop-color="rgb(62, 62, 62)" offset="0"></stop><stop stop-color="rgb(39, 39, 39)" offset="0.19"></stop></linearGradient><linearGradient x1="0.5" y1="0" x2="0" y2="1" id="SvgjsLinearGradient1132"><stop stop-color="rgb(35, 35, 35)" offset="0"></stop><stop stop-color="rgb(63, 63, 63)" offset="0.28"></stop></linearGradient><linearGradient x1="0.5" y1="0" x2="0" y2="1" id="SvgjsLinearGradient1133"><stop stop-color="rgb(35, 35, 35)" offset="0"></stop><stop stop-color="rgb(63, 63, 63)" offset="0.37"></stop></linearGradient><linearGradient x1="0.5" y1="0" x2="0" y2="1" id="SvgjsLinearGradient1134"><stop stop-color="rgb(62, 62, 62)" offset="0"></stop><stop stop-color="rgb(39, 39, 39)" offset="0.4600000000000001"></stop></linearGradient><linearGradient x1="0.5" y1="0" x2="0" y2="1" id="SvgjsLinearGradient1135"><stop stop-color="rgb(62, 62, 62)" offset="0"></stop><stop stop-color="rgb(39, 39, 39)" offset="0.55"></stop></linearGradient><linearGradient x1="0.5" y1="0" x2="0" y2="1" id="SvgjsLinearGradient1136"><stop stop-color="rgb(48, 48, 48)" offset="0"></stop><stop stop-color="rgb(37, 37, 37)" offset="0.64"></stop></linearGradient><linearGradient x1="0.5" y1="0" x2="0" y2="1" id="SvgjsLinearGradient1137"><stop stop-color="rgb(30, 30, 30)" offset="0"></stop><stop stop-color="rgb(65, 65, 65)" offset="0.73"></stop></linearGradient><linearGradient x1="0.5" y1="0" x2="0" y2="1" id="SvgjsLinearGradient1138"><stop stop-color="rgb(48, 48, 48)" offset="0"></stop><stop stop-color="rgb(37, 37, 37)" offset="0.8200000000000001"></stop></linearGradient><linearGradient x1="0.5" y1="0" x2="0" y2="1" id="SvgjsLinearGradient1139"><stop stop-color="rgb(35, 35, 35)" offset="0"></stop><stop stop-color="rgb(63, 63, 63)" offset="0.91"></stop></linearGradient></defs><path d="M0,-542.150638464902C67.64835924059231,-533.9147366844562,276.30511738545107,-524.9697309373656,405.8901554435539,-492.7352277822272C535.4751935016568,-460.5007246270888,655.1998540818734,-400.15612059679586,777.510228348617,-348.7436195340717C899.8206026153607,-297.3311184713475,1006.3162566071386,-232.41848642018124,1139.752401044016,-184.26022140588205C1273.1885454808935,-136.10195639158286,1448.085828477218,-90.14562660510663,1578.127094969882,-59.79402944827662C1708.1683614625458,-29.44243229144661,1863.0211824949804,-11.757870295464455,1920,-2.1506384649020234L 1920 1080 L 0 1080 Z" fill="url(&quot;#SvgjsLinearGradient1130&quot;)"></path><path d="M0,-458.995348399386C81.61928282470006,-437.3634981726164,333.5928392162949,-365.97245446601653,489.7156969482004,-329.2042470387686C645.8385546801059,-292.43603961152064,787.8415396942638,-280.01913801638625,936.7371463914328,-238.38610383589838C1085.6327530886017,-196.7530696554105,1219.2121948631197,-132.63783452859337,1383.0893371312143,-79.40604195584132C1546.9664793993088,-26.174249383089254,1830.514889521869,54.26953600787144,1920,81.004651600614L 1920 1080 L 0 1080 Z" fill="url(&quot;#SvgjsLinearGradient1131&quot;)"></path><path d="M0,-360.72320333488517C38.66975628782207,-345.5057782567704,146.6507513072442,-286.3867443336184,232.0185377269324,-269.41865286619645C317.3863241466206,-252.45056139877448,435.92454880555505,-272.2249731573778,512.2067185181293,-258.9146545303533C588.4888882307034,-245.60433590332875,619.2203682431375,-211.79244186376144,689.7115560023777,-189.55674110404922C760.202743761618,-167.321040344337,842.8691846010192,-155.5960147425687,935.1538450735703,-125.50044997208005C1027.4385055461214,-95.40488520159138,1153.3949447681891,-31.91676555420435,1243.4195188376846,-8.983352481117237C1333.44409290718,13.950060591969876,1408.9917595835354,-10.925211110923701,1475.3012894905432,12.10002846644263C1541.610819397551,35.12526804380896,1567.1602465281553,101.30529028330204,1641.2766982797314,129.16808498308075C1715.3931500313074,157.03087968285945,1873.5461163799553,170.92534471810916,1920,179.27679666511483L 1920 1080 L 0 1080 Z" fill="url(&quot;#SvgjsLinearGradient1132&quot;)"></path><path d="M0,-209.39658999064417C51.462760676930635,-198.76998670379726,196.05286815037562,-178.7295435458774,308.7765640615838,-145.63697026956274C421.50025997279204,-112.54439699324809,568.559051060297,-46.38910587208802,676.3421754672494,-10.841150332756271C784.1252998742018,24.706805206575474,854.2525581714674,43.22763865542707,955.4753105032983,67.65076296642772C1056.6980628351291,92.07388727742837,1174.0747750479914,109.49477517334235,1283.6786894582344,135.6975955332476C1393.2826038684775,161.90041589315288,1507.0452452077966,192.38338271317463,1613.0987969647574,224.8676851258593C1719.1523487217182,257.351987538544,1868.8497994941263,312.98078919543974,1920,330.6034100093558L 1920 1080 L 0 1080 Z" fill="url(&quot;#SvgjsLinearGradient1133&quot;)"></path><path d="M0,-134.01312576192186C48.16610052442346,-115.8346183056969,181.23689485318636,-60.58220984627795,288.9966031465408,-24.942081024572133C396.7563114398952,10.698047797133682,530.4855527498943,53.41709651048589,646.5582497601266,79.82764716831304C762.630946770359,106.23819782614018,880.0731269716648,112.99293605977792,985.4327852079348,133.52122292239073C1090.7924434442048,154.04950978500355,1170.6138030643397,174.35361662202126,1278.7161991777466,202.9973683439899C1386.8185952911535,231.64112006595855,1527.166528418001,271.5521489385212,1634.0471618883766,305.3837332542026C1740.9277953587523,339.21531756988395,1872.3411936480627,389.2196840740989,1920,405.98687423807814L 1920 1080 L 0 1080 Z" fill="url(&quot;#SvgjsLinearGradient1134&quot;)"></path><path d="M0,44.580857050887545C48.68545694347284,59.30141050478135,204.96818766846002,112.55844680559719,292.11274166083706,132.90417777425037C379.2572956532141,153.24990874290356,438.00988829962256,139.9730364464567,522.8673239542622,166.6552428628067C607.7247596089019,193.3374492791567,710.2352677674984,257.21859802900985,801.2573555886751,292.9974162723504C892.2794434098518,328.77623451569093,977.5845351203759,361.8106916717595,1068.9998508813223,381.32815232285003C1160.4151666422688,400.84561297394055,1251.6087213039787,389.9529684897741,1349.7492501543538,410.10218017889366C1447.889779004729,430.25139186801323,1562.8012323426326,473.14364297890177,1657.8430239835736,502.2234224575674C1752.8848156245147,531.303201936233,1876.307170663929,570.8546179520008,1920,584.5808570508875L 1920 1080 L 0 1080 Z" fill="url(&quot;#SvgjsLinearGradient1135&quot;)"></path><path d="M0,152.74469677394023C47.51787282165299,170.4967231470392,177.01587938540865,229.45226674985835,285.107236929918,259.256855012534C393.1985944744273,289.0614432752096,534.7577565261203,307.4338445098666,648.5481452670558,331.57222634999414C762.3385340079914,355.71060819012166,861.1821169148129,368.65597937611795,967.8495693755315,404.0871460532993C1074.51702183625,439.51831273048066,1180.0261977159323,520.8195546320333,1288.5528600313673,544.1592264130821C1397.0795223468024,567.498898194131,1513.7683532733695,519.3609316794494,1619.0095432681417,544.1251767395925C1724.2507332629139,568.8894217997355,1869.8349238780236,667.9747767682155,1920,692.7446967739402L 1920 1080 L 0 1080 Z" fill="url(&quot;#SvgjsLinearGradient1136&quot;)"></path><path d="M0,176.32561899155039C57.803153152390884,196.0867668648729,243.62387288519386,266.2947176155754,346.8189189143453,294.8925062314855C450.0139649434968,323.49029484739566,510.9051709656844,327.90985526132704,619.1702761749088,347.9123506870113C727.4353813841333,367.9148461126956,884.6308163225767,385.3482478069303,996.4095501696918,414.90747878559137C1108.1882840168068,444.4667097642524,1194.136622748304,483.2258987281124,1289.8426792575992,525.2677365589776C1385.5487357668944,567.3095743898429,1465.619669101729,635.3155253653541,1570.6458892254625,667.1585057707829C1675.672109349196,699.0014861762116,1861.7743148709105,708.1311001214225,1920,716.3256189915504L 1920 1080 L 0 1080 Z" fill="url(&quot;#SvgjsLinearGradient1137&quot;)"></path><path d="M0,337.6473117470212C45.48644393988579,353.72070860039634,163.5123060106195,412.6544564489659,272.91866363931473,434.08769286727204C382.32502126800995,455.5209292855782,540.7522665955211,441.6856789036247,656.4381457721712,466.246730256858C772.1240249488213,490.80778161009124,871.4596430172554,542.9651319102119,967.0339386992154,581.4540009866716C1062.6082343811754,619.9428700631314,1130.6681179273949,663.5134800074113,1229.883919863931,697.1799447156164C1329.099721800467,730.8464094238216,1447.3094036290868,753.3748947306683,1562.3287503184315,783.4527892359024C1677.3480970077762,813.5306837411365,1860.388125053072,861.9482246618347,1920,877.6473117470211L 1920 1080 L 0 1080 Z" fill="url(&quot;#SvgjsLinearGradient1138&quot;)"></path><path d="M0,453.9262361358054C68.51396117710833,468.95988575463446,283.7417232215868,513.438463992206,411.08376706264994,544.1281338487796C538.425810903713,574.8178037053532,645.5876884709425,601.8470888837966,764.0522630463787,638.0642552752466C882.516837621815,674.2814216666967,989.1067218526323,718.8900356079083,1121.8712145152676,761.4311321974799C1254.635707177903,803.9722287870514,1427.6177547747357,854.5616508229551,1560.6392190221911,893.310834812676C1693.6606832696466,932.0600188023969,1860.1065365036984,977.1570025819506,1920,993.9262361358054L 1920 1080 L 0 1080 Z" fill="url(&quot;#SvgjsLinearGradient1139&quot;)"></path></svg>