<svg width="385" height="1053" viewBox="0 0 385 1053" fill="none" xmlns="http://www.w3.org/2000/svg">
<path fill-rule="evenodd" clip-rule="evenodd" d="M363.052 22.2228C391.428 50.6051 391.428 96.6218 363.052 125.004L323.53 164.535C316.982 171.085 306.365 171.085 299.816 164.535L260.294 125.004C231.918 96.6218 231.918 50.6051 260.294 22.2228C288.67 -6.15947 334.676 -6.15947 363.052 22.2228ZM124.54 904.79C152.916 933.172 152.916 979.189 124.54 1007.57L85.0176 1047.1C78.4694 1053.65 67.8525 1053.65 61.3042 1047.1L21.7819 1007.57C-6.59397 979.189 -6.59397 933.172 21.7819 904.79C50.1578 876.408 96.1641 876.408 124.54 904.79Z" fill="#29D391"/>
<path fill-rule="evenodd" clip-rule="evenodd" d="M91.8983 917.6C88.1627 918.36 85.0867 920.934 83.6314 924.364C83.7084 926.1 84.1373 927.288 84.6705 928.112C85.2578 929.02 86.0802 929.654 87.0836 930.084C88.5483 930.712 90.315 930.862 91.8983 930.747V917.6ZM84.0187 934.14C85.9325 937.808 89.7719 940.313 94.1963 940.313L108.145 940.313C111.735 940.313 114.645 937.403 114.645 933.813V929.32H105.859L105.549 927.178C104.874 922.526 101.404 918.778 96.8983 917.69V934.883L94.9621 935.331C92.4479 935.913 88.54 936.148 85.1141 934.68C84.7436 934.521 84.3774 934.341 84.0187 934.14ZM94.1963 912.37C85.0993 912.37 77.7246 919.744 77.7246 928.841C77.7246 930.994 78.1376 933.051 78.8888 934.936C53.1143 953.835 46.5363 975.543 46.54 986.815C42.8848 986.851 38.2753 985.967 34.3732 983.292C29.7869 980.148 25.8076 974.278 25.8076 963.417H20.8076C20.8076 975.68 25.4079 983.208 31.546 987.416C36.5888 990.873 42.4137 991.914 46.9521 991.808L46.953 991.816H72.1412V986.816H51.5401C51.5389 977.445 57.0685 957.312 81.4419 939.265C84.4626 942.957 89.0543 945.313 94.1963 945.313L100.532 945.313L100.532 992.002H113.525V987.002H105.532L105.532 945.313L108.145 945.313C114.496 945.313 119.645 940.165 119.645 933.813V927.82C119.645 925.887 118.078 924.32 116.145 924.32H110.039C108.073 917.421 101.726 912.37 94.1963 912.37ZM66.8945 967.45C73.2461 969.628 77.8058 975.652 77.8058 982.735V991.841H95.477V986.841H82.8058V982.735C82.8058 973.451 76.8267 965.57 68.5165 962.72L66.8945 967.45Z" fill="#1E1E1E"/>
<path fill-rule="evenodd" clip-rule="evenodd" d="M313.386 29.1989L354.265 52.8005V100.004L313.386 123.605L272.507 100.004V52.8005L313.386 29.1989ZM277.507 97.1168V58.2603L311.18 77.7012V116.558L277.507 97.1168ZM316.18 116.219V77.7012L349.265 58.5994V97.1168L316.18 116.219ZM313.386 34.9724L346.787 54.2566L332.298 62.6221L298.896 43.3379L313.386 34.9724ZM313.68 73.3712L329.298 64.3541L295.896 45.0699L280.279 54.087L313.68 73.3712ZM320.056 94.1227L320.056 109.526L333.395 101.824L333.396 86.4206L320.056 94.1227Z" fill="#1D1D1D"/>
</svg>
